<mxfile host="app.diagrams.net" modified="2023-09-23T12:55:52.713Z" agent="Mozilla/5.0 (Windows NT 10.0; Win64; x64) AppleWebKit/537.36 (KHTML, like Gecko) Chrome/117.0.0.0 Safari/537.36 Edg/117.0.2045.36" etag="bsVMv0xRKVxvsPZ_S8aU" version="21.8.0" type="github">
  <diagram name="Page-1" id="ygKmvQy7IcpZ4q00hGml">
    <mxGraphModel dx="872" dy="491" grid="1" gridSize="10" guides="1" tooltips="1" connect="1" arrows="1" fold="1" page="1" pageScale="1" pageWidth="850" pageHeight="1100" math="0" shadow="0">
      <root>
        <mxCell id="0" />
        <mxCell id="1" parent="0" />
        <mxCell id="VyK6y8ybYok0MNWkSeHh-1" value="User Interface" style="shape=cube;whiteSpace=wrap;html=1;boundedLbl=1;backgroundOutline=1;darkOpacity=0.05;darkOpacity2=0.1;flipH=1;size=10;fontSize=15;" vertex="1" parent="1">
          <mxGeometry x="320" y="40" width="130" height="60" as="geometry" />
        </mxCell>
        <mxCell id="VyK6y8ybYok0MNWkSeHh-2" value="&lt;font style=&quot;font-size: 13px;&quot;&gt;Backend Server&lt;/font&gt;" style="shape=cube;whiteSpace=wrap;html=1;boundedLbl=1;backgroundOutline=1;darkOpacity=0.05;darkOpacity2=0.1;flipH=1;size=10;fontSize=15;" vertex="1" parent="1">
          <mxGeometry x="315" y="130" width="135" height="50" as="geometry" />
        </mxCell>
        <mxCell id="VyK6y8ybYok0MNWkSeHh-4" value="&lt;font style=&quot;font-size: 13px;&quot;&gt;Database&lt;/font&gt;" style="shape=cube;whiteSpace=wrap;html=1;boundedLbl=1;backgroundOutline=1;darkOpacity=0.05;darkOpacity2=0.1;flipH=1;size=10;fontSize=15;" vertex="1" parent="1">
          <mxGeometry x="180" y="230" width="120" height="80" as="geometry" />
        </mxCell>
        <mxCell id="VyK6y8ybYok0MNWkSeHh-3" value="" style="strokeWidth=2;html=1;shape=mxgraph.flowchart.database;whiteSpace=wrap;" vertex="1" parent="1">
          <mxGeometry x="186" y="244" width="20" height="20" as="geometry" />
        </mxCell>
        <mxCell id="VyK6y8ybYok0MNWkSeHh-5" value="Cache" style="shape=cube;whiteSpace=wrap;html=1;boundedLbl=1;backgroundOutline=1;darkOpacity=0.05;darkOpacity2=0.1;flipH=1;size=10;fontSize=13;" vertex="1" parent="1">
          <mxGeometry x="350" y="230" width="120" height="80" as="geometry" />
        </mxCell>
        <mxCell id="VyK6y8ybYok0MNWkSeHh-6" value="" style="sketch=0;outlineConnect=0;fontColor=#232F3E;gradientColor=none;strokeColor=#232F3E;fillColor=#ffffff;dashed=0;verticalLabelPosition=bottom;verticalAlign=top;align=center;html=1;fontSize=12;fontStyle=0;aspect=fixed;shape=mxgraph.aws4.resourceIcon;resIcon=mxgraph.aws4.cache_node;" vertex="1" parent="1">
          <mxGeometry x="350" y="236" width="36" height="36" as="geometry" />
        </mxCell>
        <mxCell id="VyK6y8ybYok0MNWkSeHh-7" value="&lt;font style=&quot;font-size: 13px;&quot;&gt;Background Jobs&lt;/font&gt;" style="shape=cube;whiteSpace=wrap;html=1;boundedLbl=1;backgroundOutline=1;darkOpacity=0.05;darkOpacity2=0.1;flipH=1;size=10;fontSize=15;" vertex="1" parent="1">
          <mxGeometry x="530" y="230" width="120" height="80" as="geometry" />
        </mxCell>
        <mxCell id="VyK6y8ybYok0MNWkSeHh-9" value="" style="image;aspect=fixed;html=1;points=[];align=center;fontSize=12;image=img/lib/azure2/management_governance/Scheduler_Job_Collections.svg;" vertex="1" parent="1">
          <mxGeometry x="532" y="237" width="34" height="32" as="geometry" />
        </mxCell>
        <mxCell id="VyK6y8ybYok0MNWkSeHh-11" value="&lt;font style=&quot;font-size: 13px;&quot;&gt;Recurring Event Table&lt;/font&gt;" style="shape=cube;whiteSpace=wrap;html=1;boundedLbl=1;backgroundOutline=1;darkOpacity=0.05;darkOpacity2=0.1;flipH=1;size=10;fontSize=15;verticalAlign=top;align=left;" vertex="1" parent="1">
          <mxGeometry x="180" y="530" width="400" height="120" as="geometry" />
        </mxCell>
        <mxCell id="VyK6y8ybYok0MNWkSeHh-77" value="" style="group" vertex="1" connectable="0" parent="1">
          <mxGeometry x="80" y="360" width="190" height="140" as="geometry" />
        </mxCell>
        <mxCell id="VyK6y8ybYok0MNWkSeHh-8" value="&lt;font style=&quot;font-size: 13px;&quot;&gt;User Table&lt;/font&gt;" style="shape=cube;whiteSpace=wrap;html=1;boundedLbl=1;backgroundOutline=1;darkOpacity=0.05;darkOpacity2=0.1;flipH=1;size=10;fontSize=15;verticalAlign=top;align=left;" vertex="1" parent="VyK6y8ybYok0MNWkSeHh-77">
          <mxGeometry width="190" height="140" as="geometry" />
        </mxCell>
        <mxCell id="VyK6y8ybYok0MNWkSeHh-25" value="" style="childLayout=tableLayout;recursiveResize=0;shadow=0;fillColor=none;" vertex="1" parent="VyK6y8ybYok0MNWkSeHh-77">
          <mxGeometry x="6" y="45" width="166" height="70" as="geometry" />
        </mxCell>
        <mxCell id="VyK6y8ybYok0MNWkSeHh-26" value="" style="shape=tableRow;horizontal=0;startSize=0;swimlaneHead=0;swimlaneBody=0;top=0;left=0;bottom=0;right=0;dropTarget=0;collapsible=0;recursiveResize=0;expand=0;fontStyle=0;fillColor=none;strokeColor=inherit;" vertex="1" parent="VyK6y8ybYok0MNWkSeHh-25">
          <mxGeometry width="166" height="26" as="geometry" />
        </mxCell>
        <mxCell id="VyK6y8ybYok0MNWkSeHh-27" value="Name" style="connectable=0;recursiveResize=0;strokeColor=inherit;fillColor=none;align=center;whiteSpace=wrap;html=1;" vertex="1" parent="VyK6y8ybYok0MNWkSeHh-26">
          <mxGeometry width="54" height="26" as="geometry">
            <mxRectangle width="54" height="26" as="alternateBounds" />
          </mxGeometry>
        </mxCell>
        <mxCell id="VyK6y8ybYok0MNWkSeHh-28" value="Email" style="connectable=0;recursiveResize=0;strokeColor=inherit;fillColor=none;align=center;whiteSpace=wrap;html=1;" vertex="1" parent="VyK6y8ybYok0MNWkSeHh-26">
          <mxGeometry x="54" width="42" height="26" as="geometry">
            <mxRectangle width="42" height="26" as="alternateBounds" />
          </mxGeometry>
        </mxCell>
        <mxCell id="VyK6y8ybYok0MNWkSeHh-29" value="Password&lt;br&gt;Hash" style="connectable=0;recursiveResize=0;strokeColor=inherit;fillColor=none;align=center;whiteSpace=wrap;html=1;" vertex="1" parent="VyK6y8ybYok0MNWkSeHh-26">
          <mxGeometry x="96" width="70" height="26" as="geometry">
            <mxRectangle width="70" height="26" as="alternateBounds" />
          </mxGeometry>
        </mxCell>
        <mxCell id="VyK6y8ybYok0MNWkSeHh-30" style="shape=tableRow;horizontal=0;startSize=0;swimlaneHead=0;swimlaneBody=0;top=0;left=0;bottom=0;right=0;dropTarget=0;collapsible=0;recursiveResize=0;expand=0;fontStyle=0;fillColor=none;strokeColor=inherit;" vertex="1" parent="VyK6y8ybYok0MNWkSeHh-25">
          <mxGeometry y="26" width="166" height="21" as="geometry" />
        </mxCell>
        <mxCell id="VyK6y8ybYok0MNWkSeHh-31" value="" style="connectable=0;recursiveResize=0;strokeColor=inherit;fillColor=none;align=center;whiteSpace=wrap;html=1;" vertex="1" parent="VyK6y8ybYok0MNWkSeHh-30">
          <mxGeometry width="54" height="21" as="geometry">
            <mxRectangle width="54" height="21" as="alternateBounds" />
          </mxGeometry>
        </mxCell>
        <mxCell id="VyK6y8ybYok0MNWkSeHh-32" value="" style="connectable=0;recursiveResize=0;strokeColor=inherit;fillColor=none;align=center;whiteSpace=wrap;html=1;" vertex="1" parent="VyK6y8ybYok0MNWkSeHh-30">
          <mxGeometry x="54" width="42" height="21" as="geometry">
            <mxRectangle width="42" height="21" as="alternateBounds" />
          </mxGeometry>
        </mxCell>
        <mxCell id="VyK6y8ybYok0MNWkSeHh-33" value="" style="connectable=0;recursiveResize=0;strokeColor=inherit;fillColor=none;align=center;whiteSpace=wrap;html=1;" vertex="1" parent="VyK6y8ybYok0MNWkSeHh-30">
          <mxGeometry x="96" width="70" height="21" as="geometry">
            <mxRectangle width="70" height="21" as="alternateBounds" />
          </mxGeometry>
        </mxCell>
        <mxCell id="VyK6y8ybYok0MNWkSeHh-34" style="shape=tableRow;horizontal=0;startSize=0;swimlaneHead=0;swimlaneBody=0;top=0;left=0;bottom=0;right=0;dropTarget=0;collapsible=0;recursiveResize=0;expand=0;fontStyle=0;fillColor=none;strokeColor=inherit;" vertex="1" parent="VyK6y8ybYok0MNWkSeHh-25">
          <mxGeometry y="47" width="166" height="23" as="geometry" />
        </mxCell>
        <mxCell id="VyK6y8ybYok0MNWkSeHh-35" value="" style="connectable=0;recursiveResize=0;strokeColor=inherit;fillColor=none;align=center;whiteSpace=wrap;html=1;" vertex="1" parent="VyK6y8ybYok0MNWkSeHh-34">
          <mxGeometry width="54" height="23" as="geometry">
            <mxRectangle width="54" height="23" as="alternateBounds" />
          </mxGeometry>
        </mxCell>
        <mxCell id="VyK6y8ybYok0MNWkSeHh-36" value="" style="connectable=0;recursiveResize=0;strokeColor=inherit;fillColor=none;align=center;whiteSpace=wrap;html=1;" vertex="1" parent="VyK6y8ybYok0MNWkSeHh-34">
          <mxGeometry x="54" width="42" height="23" as="geometry">
            <mxRectangle width="42" height="23" as="alternateBounds" />
          </mxGeometry>
        </mxCell>
        <mxCell id="VyK6y8ybYok0MNWkSeHh-37" value="" style="connectable=0;recursiveResize=0;strokeColor=inherit;fillColor=none;align=center;whiteSpace=wrap;html=1;" vertex="1" parent="VyK6y8ybYok0MNWkSeHh-34">
          <mxGeometry x="96" width="70" height="23" as="geometry">
            <mxRectangle width="70" height="23" as="alternateBounds" />
          </mxGeometry>
        </mxCell>
        <mxCell id="VyK6y8ybYok0MNWkSeHh-79" value="" style="group" vertex="1" connectable="0" parent="1">
          <mxGeometry x="315" y="370" width="345" height="120" as="geometry" />
        </mxCell>
        <mxCell id="VyK6y8ybYok0MNWkSeHh-10" value="&lt;font style=&quot;font-size: 13px;&quot;&gt;Event Table&lt;/font&gt;" style="shape=cube;whiteSpace=wrap;html=1;boundedLbl=1;backgroundOutline=1;darkOpacity=0.05;darkOpacity2=0.1;flipH=1;size=10;fontSize=15;verticalAlign=top;align=left;" vertex="1" parent="VyK6y8ybYok0MNWkSeHh-79">
          <mxGeometry width="345" height="120" as="geometry" />
        </mxCell>
        <mxCell id="VyK6y8ybYok0MNWkSeHh-38" value="" style="childLayout=tableLayout;recursiveResize=0;shadow=0;fillColor=none;" vertex="1" parent="VyK6y8ybYok0MNWkSeHh-79">
          <mxGeometry x="3" y="40" width="165" height="70" as="geometry" />
        </mxCell>
        <mxCell id="VyK6y8ybYok0MNWkSeHh-39" value="" style="shape=tableRow;horizontal=0;startSize=0;swimlaneHead=0;swimlaneBody=0;top=0;left=0;bottom=0;right=0;dropTarget=0;collapsible=0;recursiveResize=0;expand=0;fontStyle=0;fillColor=none;strokeColor=inherit;" vertex="1" parent="VyK6y8ybYok0MNWkSeHh-38">
          <mxGeometry width="165" height="26" as="geometry" />
        </mxCell>
        <mxCell id="VyK6y8ybYok0MNWkSeHh-40" value="Title" style="connectable=0;recursiveResize=0;strokeColor=inherit;fillColor=none;align=center;whiteSpace=wrap;html=1;" vertex="1" parent="VyK6y8ybYok0MNWkSeHh-39">
          <mxGeometry width="54" height="26" as="geometry">
            <mxRectangle width="54" height="26" as="alternateBounds" />
          </mxGeometry>
        </mxCell>
        <mxCell id="VyK6y8ybYok0MNWkSeHh-41" value="Desc" style="connectable=0;recursiveResize=0;strokeColor=inherit;fillColor=none;align=center;whiteSpace=wrap;html=1;" vertex="1" parent="VyK6y8ybYok0MNWkSeHh-39">
          <mxGeometry x="54" width="57" height="26" as="geometry">
            <mxRectangle width="57" height="26" as="alternateBounds" />
          </mxGeometry>
        </mxCell>
        <mxCell id="VyK6y8ybYok0MNWkSeHh-42" value="StartDT" style="connectable=0;recursiveResize=0;strokeColor=inherit;fillColor=none;align=center;whiteSpace=wrap;html=1;" vertex="1" parent="VyK6y8ybYok0MNWkSeHh-39">
          <mxGeometry x="111" width="54" height="26" as="geometry">
            <mxRectangle width="54" height="26" as="alternateBounds" />
          </mxGeometry>
        </mxCell>
        <mxCell id="VyK6y8ybYok0MNWkSeHh-43" style="shape=tableRow;horizontal=0;startSize=0;swimlaneHead=0;swimlaneBody=0;top=0;left=0;bottom=0;right=0;dropTarget=0;collapsible=0;recursiveResize=0;expand=0;fontStyle=0;fillColor=none;strokeColor=inherit;" vertex="1" parent="VyK6y8ybYok0MNWkSeHh-38">
          <mxGeometry y="26" width="165" height="21" as="geometry" />
        </mxCell>
        <mxCell id="VyK6y8ybYok0MNWkSeHh-44" value="Value 4" style="connectable=0;recursiveResize=0;strokeColor=inherit;fillColor=none;align=center;whiteSpace=wrap;html=1;" vertex="1" parent="VyK6y8ybYok0MNWkSeHh-43">
          <mxGeometry width="54" height="21" as="geometry">
            <mxRectangle width="54" height="21" as="alternateBounds" />
          </mxGeometry>
        </mxCell>
        <mxCell id="VyK6y8ybYok0MNWkSeHh-45" value="Value 5" style="connectable=0;recursiveResize=0;strokeColor=inherit;fillColor=none;align=center;whiteSpace=wrap;html=1;" vertex="1" parent="VyK6y8ybYok0MNWkSeHh-43">
          <mxGeometry x="54" width="57" height="21" as="geometry">
            <mxRectangle width="57" height="21" as="alternateBounds" />
          </mxGeometry>
        </mxCell>
        <mxCell id="VyK6y8ybYok0MNWkSeHh-46" value="Value 6" style="connectable=0;recursiveResize=0;strokeColor=inherit;fillColor=none;align=center;whiteSpace=wrap;html=1;" vertex="1" parent="VyK6y8ybYok0MNWkSeHh-43">
          <mxGeometry x="111" width="54" height="21" as="geometry">
            <mxRectangle width="54" height="21" as="alternateBounds" />
          </mxGeometry>
        </mxCell>
        <mxCell id="VyK6y8ybYok0MNWkSeHh-47" style="shape=tableRow;horizontal=0;startSize=0;swimlaneHead=0;swimlaneBody=0;top=0;left=0;bottom=0;right=0;dropTarget=0;collapsible=0;recursiveResize=0;expand=0;fontStyle=0;fillColor=none;strokeColor=inherit;" vertex="1" parent="VyK6y8ybYok0MNWkSeHh-38">
          <mxGeometry y="47" width="165" height="23" as="geometry" />
        </mxCell>
        <mxCell id="VyK6y8ybYok0MNWkSeHh-48" value="Value 7" style="connectable=0;recursiveResize=0;strokeColor=inherit;fillColor=none;align=center;whiteSpace=wrap;html=1;" vertex="1" parent="VyK6y8ybYok0MNWkSeHh-47">
          <mxGeometry width="54" height="23" as="geometry">
            <mxRectangle width="54" height="23" as="alternateBounds" />
          </mxGeometry>
        </mxCell>
        <mxCell id="VyK6y8ybYok0MNWkSeHh-49" value="Value 8" style="connectable=0;recursiveResize=0;strokeColor=inherit;fillColor=none;align=center;whiteSpace=wrap;html=1;" vertex="1" parent="VyK6y8ybYok0MNWkSeHh-47">
          <mxGeometry x="54" width="57" height="23" as="geometry">
            <mxRectangle width="57" height="23" as="alternateBounds" />
          </mxGeometry>
        </mxCell>
        <mxCell id="VyK6y8ybYok0MNWkSeHh-50" value="Value 9" style="connectable=0;recursiveResize=0;strokeColor=inherit;fillColor=none;align=center;whiteSpace=wrap;html=1;" vertex="1" parent="VyK6y8ybYok0MNWkSeHh-47">
          <mxGeometry x="111" width="54" height="23" as="geometry">
            <mxRectangle width="54" height="23" as="alternateBounds" />
          </mxGeometry>
        </mxCell>
        <mxCell id="VyK6y8ybYok0MNWkSeHh-64" value="" style="childLayout=tableLayout;recursiveResize=0;shadow=0;fillColor=none;" vertex="1" parent="VyK6y8ybYok0MNWkSeHh-79">
          <mxGeometry x="168" y="40" width="165" height="70" as="geometry" />
        </mxCell>
        <mxCell id="VyK6y8ybYok0MNWkSeHh-65" value="" style="shape=tableRow;horizontal=0;startSize=0;swimlaneHead=0;swimlaneBody=0;top=0;left=0;bottom=0;right=0;dropTarget=0;collapsible=0;recursiveResize=0;expand=0;fontStyle=0;fillColor=none;strokeColor=inherit;" vertex="1" parent="VyK6y8ybYok0MNWkSeHh-64">
          <mxGeometry width="165" height="26" as="geometry" />
        </mxCell>
        <mxCell id="VyK6y8ybYok0MNWkSeHh-66" value="EndDT&lt;span style=&quot;white-space: pre;&quot;&gt;&#x9;&lt;/span&gt;" style="connectable=0;recursiveResize=0;strokeColor=inherit;fillColor=none;align=center;whiteSpace=wrap;html=1;" vertex="1" parent="VyK6y8ybYok0MNWkSeHh-65">
          <mxGeometry width="54" height="26" as="geometry">
            <mxRectangle width="54" height="26" as="alternateBounds" />
          </mxGeometry>
        </mxCell>
        <mxCell id="VyK6y8ybYok0MNWkSeHh-67" value="Location" style="connectable=0;recursiveResize=0;strokeColor=inherit;fillColor=none;align=center;whiteSpace=wrap;html=1;" vertex="1" parent="VyK6y8ybYok0MNWkSeHh-65">
          <mxGeometry x="54" width="57" height="26" as="geometry">
            <mxRectangle width="57" height="26" as="alternateBounds" />
          </mxGeometry>
        </mxCell>
        <mxCell id="VyK6y8ybYok0MNWkSeHh-68" value="IsRecurring" style="connectable=0;recursiveResize=0;strokeColor=inherit;fillColor=none;align=center;whiteSpace=wrap;html=1;" vertex="1" parent="VyK6y8ybYok0MNWkSeHh-65">
          <mxGeometry x="111" width="54" height="26" as="geometry">
            <mxRectangle width="54" height="26" as="alternateBounds" />
          </mxGeometry>
        </mxCell>
        <mxCell id="VyK6y8ybYok0MNWkSeHh-69" style="shape=tableRow;horizontal=0;startSize=0;swimlaneHead=0;swimlaneBody=0;top=0;left=0;bottom=0;right=0;dropTarget=0;collapsible=0;recursiveResize=0;expand=0;fontStyle=0;fillColor=none;strokeColor=inherit;" vertex="1" parent="VyK6y8ybYok0MNWkSeHh-64">
          <mxGeometry y="26" width="165" height="21" as="geometry" />
        </mxCell>
        <mxCell id="VyK6y8ybYok0MNWkSeHh-70" value="Value 4" style="connectable=0;recursiveResize=0;strokeColor=inherit;fillColor=none;align=center;whiteSpace=wrap;html=1;" vertex="1" parent="VyK6y8ybYok0MNWkSeHh-69">
          <mxGeometry width="54" height="21" as="geometry">
            <mxRectangle width="54" height="21" as="alternateBounds" />
          </mxGeometry>
        </mxCell>
        <mxCell id="VyK6y8ybYok0MNWkSeHh-71" value="Value 5" style="connectable=0;recursiveResize=0;strokeColor=inherit;fillColor=none;align=center;whiteSpace=wrap;html=1;" vertex="1" parent="VyK6y8ybYok0MNWkSeHh-69">
          <mxGeometry x="54" width="57" height="21" as="geometry">
            <mxRectangle width="57" height="21" as="alternateBounds" />
          </mxGeometry>
        </mxCell>
        <mxCell id="VyK6y8ybYok0MNWkSeHh-72" value="Value 6" style="connectable=0;recursiveResize=0;strokeColor=inherit;fillColor=none;align=center;whiteSpace=wrap;html=1;" vertex="1" parent="VyK6y8ybYok0MNWkSeHh-69">
          <mxGeometry x="111" width="54" height="21" as="geometry">
            <mxRectangle width="54" height="21" as="alternateBounds" />
          </mxGeometry>
        </mxCell>
        <mxCell id="VyK6y8ybYok0MNWkSeHh-73" style="shape=tableRow;horizontal=0;startSize=0;swimlaneHead=0;swimlaneBody=0;top=0;left=0;bottom=0;right=0;dropTarget=0;collapsible=0;recursiveResize=0;expand=0;fontStyle=0;fillColor=none;strokeColor=inherit;" vertex="1" parent="VyK6y8ybYok0MNWkSeHh-64">
          <mxGeometry y="47" width="165" height="23" as="geometry" />
        </mxCell>
        <mxCell id="VyK6y8ybYok0MNWkSeHh-74" value="Value 7" style="connectable=0;recursiveResize=0;strokeColor=inherit;fillColor=none;align=center;whiteSpace=wrap;html=1;" vertex="1" parent="VyK6y8ybYok0MNWkSeHh-73">
          <mxGeometry width="54" height="23" as="geometry">
            <mxRectangle width="54" height="23" as="alternateBounds" />
          </mxGeometry>
        </mxCell>
        <mxCell id="VyK6y8ybYok0MNWkSeHh-75" value="Value 8" style="connectable=0;recursiveResize=0;strokeColor=inherit;fillColor=none;align=center;whiteSpace=wrap;html=1;" vertex="1" parent="VyK6y8ybYok0MNWkSeHh-73">
          <mxGeometry x="54" width="57" height="23" as="geometry">
            <mxRectangle width="57" height="23" as="alternateBounds" />
          </mxGeometry>
        </mxCell>
        <mxCell id="VyK6y8ybYok0MNWkSeHh-76" value="Value 9" style="connectable=0;recursiveResize=0;strokeColor=inherit;fillColor=none;align=center;whiteSpace=wrap;html=1;" vertex="1" parent="VyK6y8ybYok0MNWkSeHh-73">
          <mxGeometry x="111" width="54" height="23" as="geometry">
            <mxRectangle width="54" height="23" as="alternateBounds" />
          </mxGeometry>
        </mxCell>
      </root>
    </mxGraphModel>
  </diagram>
</mxfile>
